# xmcd CD database file
#
# Track frame offsets:
#	150
#	12856
#	26221
#	37862
#	50581
#	62772
#	73357
#	87105
#	99745
#	114150
#	125633
#	140015
#	155595
#	168791
#	182990
#	196471
#	211187
#	225249
#	237967
#	251399
#	264538
#
# Disc length: 3693 seconds
#
# Revision: 2
# Processed by: cddbd v1.5.2PL0 Copyright (c) Steve Scherf et al.
# Submitted via: CDex 1.51
#
DISCID=230e6b15
DTITLE=Miles Davis - Vol.2 - Out of the Blues - Early Miles 1945-1947 (2)
DYEAR=1900
DGENRE=Jazz
TTITLE0=The Way You Look Tonight (Jerome Kern - Fields) Coleman Hawkins All Stars
TTITLE1=Phantomesque (Coleman Hawkins) Coleman Hawkins All Stars
TTITLE2=Milestones (Miles Davis) Miles Davis All Stars
TTITLE3=Little Willie Leaps (Miles Davis) Miles Davis All Stars
TTITLE4=Half Nelson (Miles Davis) Miles Davis All Stars
TTITLE5=Sippin' At Bells (Miles Davis) Miles Davis All Stars
TTITLE6=Dexterity (Charlie Parker) Original Charlie Parker Quintet
TTITLE7=Bongo Bop (Charlie Parker) Original Charlie Parker Quintet
TTITLE8=Dewey Square (Charlie Parker) Original Charlie Parker Quintet
TTITLE9=The Hymn (Charlie Parker) Original Charlie Parker Quintet
TTITLE10=Bird Of Paradise (Charlie Parker) Original Charlie Parker Quintet
TTITLE11=Embraceamle You (Ira Gershwin - George Gershwin) Original Charlie Parker Quintet
TTITLE12=Bird Feathers (Charlie Parker) Original Charlie Parker Quintet
TTITLE13=Klactoveedsedstene (Charlie Parker) Original Charlie Parker Quintet
TTITLE14=Scrapple From The Apple (Charlie Parker) Original Charlie Parker Quintet
TTITLE15=My Old Flame (Johnston - Coslow) Original Charlie Parker Quintet
TTITLE16=Out Of Nowhere (Green - Heyman) Original Charlie Parker Quintet
TTITLE17=Don't Blame Me (Fields - McHugh) Original Charlie Parker Quintet
TTITLE18=Drifting On A Reed (Charlie Parker) Original Charlie Parker Quintet with J.J. Johnson
TTITLE19=Quasimodo Lorenz (Charlie Parker) Original Charlie Parker Quintet with J.J. Johnson
TTITLE20=Charlie's Wig (Charlie Parker) Original Charlie Parker Quintet with J.J. Johnson
EXTD=
EXTT0=
EXTT1=
EXTT2=
EXTT3=
EXTT4=
EXTT5=
EXTT6=
EXTT7=
EXTT8=
EXTT9=
EXTT10=
EXTT11=
EXTT12=
EXTT13=
EXTT14=
EXTT15=
EXTT16=
EXTT17=
EXTT18=
EXTT19=
EXTT20=
PLAYORDER=
